<svg id="Facebook-icon" xmlns="http://www.w3.org/2000/svg" width="29.449" height="29" viewBox="0 0 29.449 29">
  <path id="Path_236" data-name="Path 236" d="M297.7,508.668q-3.409.556-6.843,1.024Q294.29,509.224,297.7,508.668Zm0,0" transform="translate(-268.251 -483.223)" fill="#8dc4c3"/>
  <path id="Path_237" data-name="Path 237" d="M302.6,507.793c-1.086.2-2.173.383-3.259.57C300.426,508.176,301.513,507.993,302.6,507.793Zm0,0" transform="translate(-274.342 -483.28)" fill="#8dc4c3"/>
  <path id="Path_238" data-name="Path 238" d="M285.631,510.34q-3.99.45-8.021.791Q281.637,510.794,285.631,510.34Zm0,0" transform="translate(-256.207 -483.113)" fill="#8dc4c3"/>
  <path id="Path_239" data-name="Path 239" d="M290.292,509.738c-1.278.171-2.564.329-3.846.479C287.727,510.067,289.014,509.909,290.292,509.738Zm0,0" transform="translate(-262.415 -483.152)" fill="#8dc4c3"/>
  <path id="Path_240" data-name="Path 240" d="M309.545,506.41c-.957.2-1.919.408-2.881.6C307.626,506.818,308.587,506.614,309.545,506.41Zm0,0" transform="translate(-281.079 -483.371)" fill="#8dc4c3"/>
  <path id="Path_241" data-name="Path 241" d="M326.807,502.113c-.774.221-1.548.429-2.323.645C325.259,502.542,326.033,502.334,326.807,502.113Zm0,0" transform="translate(-297.648 -483.653)" fill="#8dc4c3"/>
  <path id="Path_242" data-name="Path 242" d="M321.589,503.543c-.841.221-1.686.445-2.531.658Q320.326,503.882,321.589,503.543Zm0,0" transform="translate(-292.63 -483.559)" fill="#8dc4c3"/>
  <path id="Path_243" data-name="Path 243" d="M314.755,505.254c-.891.208-1.79.4-2.689.6C312.966,505.658,313.865,505.462,314.755,505.254Zm0,0" transform="translate(-286.093 -483.447)" fill="#8dc4c3"/>
  <path id="Path_244" data-name="Path 244" d="M277.793,511.09q-2.154.181-4.313.325Q275.641,511.271,277.793,511.09Zm0,0" transform="translate(-250.331 -483.064)" fill="#8dc4c3"/>
  <path id="Path_245" data-name="Path 245" d="M29,14.5A14.5,14.5,0,1,0,14.5,29h.255V17.707H11.638v-3.63h3.115V11.4c0-3.1,1.891-4.784,4.655-4.784a25.642,25.642,0,0,1,2.793.143V10H20.3c-1.5,0-1.8.715-1.8,1.763v2.312h3.595l-.469,3.63H18.5V28.436A14.506,14.506,0,0,0,29,14.5Zm0,0" fill="#8dc4c3"/>
  <path id="Path_246" data-name="Path 246" d="M273.441,511.43q-4.258.275-8.55.425Q269.18,511.711,273.441,511.43Zm0,0" transform="translate(-244.284 -483.041)" fill="#8dc4c3"/>
  <path id="Path_247" data-name="Path 247" d="M265.033,511.836q-2.26.075-4.529.112Q262.77,511.911,265.033,511.836Zm0,0" transform="translate(-238.091 -483.015)" fill="#8dc4c3"/>
</svg>
