<svg xmlns="http://www.w3.org/2000/svg" xmlns:xlink="http://www.w3.org/1999/xlink" width="29" height="29" viewBox="0 0 29 29">
  <defs>
    <clipPath id="clip-path">
      <rect id="Rectangle_198" data-name="Rectangle 198" width="29" height="29" fill="#8dc4c3"/>
    </clipPath>
  </defs>
  <g id="Insta-icon" transform="translate(0 0)">
    <g id="Group_88" data-name="Group 88" transform="translate(0 0)" clip-path="url(#clip-path)">
      <path id="Path_263" data-name="Path 263" d="M14.5,0A14.5,14.5,0,1,0,29,14.5,14.5,14.5,0,0,0,14.5,0m6.855,17.763a3.807,3.807,0,0,1-4.01,3.592c-.737.033-.971.041-2.845.041s-2.107-.008-2.843-.041a3.808,3.808,0,0,1-4.011-4.011c-.033-.736-.041-.971-.041-2.843s.008-2.107.041-2.843a3.727,3.727,0,0,1,0-.422,3.805,3.805,0,0,1,4.011-3.588c.737-.034.97-.043,2.843-.043s2.108.008,2.845.043a3.906,3.906,0,0,1,.423,0,3.8,3.8,0,0,1,3.587,4.01c.033.737.041.97.041,2.843s-.008,2.108-.041,2.843a3.836,3.836,0,0,1,0,.419" transform="translate(0 0)" fill="#8dc4c3"/>
      <path id="Path_264" data-name="Path 264" d="M25.146,16.251a2.59,2.59,0,0,0-2.827-2.33c-.727-.034-.948-.04-2.787-.04s-2.06.006-2.786.039a2.591,2.591,0,0,0-2.828,2.828c-.032.726-.04.945-.04,2.785s.008,2.059.04,2.786a2.644,2.644,0,0,0,0,.492,2.593,2.593,0,0,0,2.828,2.335c.726.033.943.04,2.786.04s2.059-.008,2.787-.04a2.672,2.672,0,0,0,.495,0,2.592,2.592,0,0,0,2.333-2.828c.032-.727.039-.945.039-2.786s-.007-2.058-.039-2.785a2.585,2.585,0,0,0,0-.5m-5.614,6.823a3.541,3.541,0,1,1,3.541-3.541,3.541,3.541,0,0,1-3.541,3.541m3.68-6.394a.827.827,0,0,1,0-1.655h0a.827.827,0,0,1,0,1.655" transform="translate(-5.033 -5.034)" fill="#8dc4c3"/>
      <path id="Path_265" data-name="Path 265" d="M21.441,19.143a2.3,2.3,0,1,0,2.3,2.3,2.3,2.3,0,0,0-2.3-2.3" transform="translate(-6.941 -6.942)" fill="#8dc4c3"/>
    </g>
  </g>
</svg>
