<svg xmlns="http://www.w3.org/2000/svg" xmlns:xlink="http://www.w3.org/1999/xlink" width="90.548" height="40" viewBox="0 0 90.548 40">
  <defs>
    <clipPath id="clip-path">
      <rect id="Rectangle_171" data-name="Rectangle 171" width="90.548" height="40" fill="#ffe66d"/>
    </clipPath>
  </defs>
  <g id="Group_30" data-name="Group 30" clip-path="url(#clip-path)">
    <path id="Path_151" data-name="Path 151" d="M53.99,146.04c-2.571-.872-3.426-1.317-3.426-2.231,0-.886,1.016-1.458,2.59-1.458h.031a9.856,9.856,0,0,1,3.914.806l.226.1,1.1-3.572-.184-.077a12.926,12.926,0,0,0-5.018-.891,9.168,9.168,0,0,0-5.488,1.538,4.78,4.78,0,0,0-2.04,3.892c0,2.424,1.793,4.174,5.482,5.35,2.274.72,3.08,1.3,3.08,2.216,0,1.061-1.038,1.67-2.847,1.67a11.465,11.465,0,0,1-4.751-1.07l-.237-.11-1,3.667.161.081a13.761,13.761,0,0,0,5.556,1.1,9.873,9.873,0,0,0,6.022-1.651,4.9,4.9,0,0,0,1.986-3.954c0-2.542-1.59-4.209-5.153-5.406" transform="translate(-38.738 -118.309)" fill="#ffe66d"/>
    <path id="Path_152" data-name="Path 152" d="M167.5,147.228h-6.761v-6.675h-4.808v17.8h4.808v-7.263H167.5v7.263h4.808v-17.8H167.5Z" transform="translate(-132.991 -119.877)" fill="#ffe66d"/>
    <path id="Path_153" data-name="Path 153" d="M406.906,141.075c-1.346-.971-3.322-1.443-6.04-1.443a40.922,40.922,0,0,0-5.928.368l-.188.028v17.537h4.769v-6.187a11.75,11.75,0,0,0,1.269.062,9.857,9.857,0,0,0,6.415-1.892,5.422,5.422,0,0,0,1.843-4.276,5.055,5.055,0,0,0-2.14-4.2m-2.627,4.3c0,1.624-1.32,2.593-3.537,2.593a7.22,7.22,0,0,1-1.223-.071v-4.751a9.458,9.458,0,0,1,1.562-.1c2.062,0,3.2.826,3.2,2.327" transform="translate(-336.682 -119.092)" fill="#ffde55"/>
    <path id="Path_154" data-name="Path 154" d="M.472,58.864v1.319H0V56.977H.472V58.3H4.328v.562Z" transform="translate(0 -48.596)" fill="#714618"/>
    <path id="Path_155" data-name="Path 155" d="M0,34.519H1.813V32.427H0v-.562H4.328v.562H2.3v2.092h2.03v.562H0Z" transform="translate(0 -27.178)" fill="#714618"/>
    <path id="Path_156" data-name="Path 156" d="M2.3,8.888v1.678H3.863V8.689h.466v2.439H0V8.788H.466v1.778H1.836V8.888Z" transform="translate(0 -7.411)" fill="#714618"/>
    <path id="Path_157" data-name="Path 157" d="M54.174,7.4c-1.939-1.315-4.416-1.9-8.032-1.9a43.058,43.058,0,0,0-5.92.375L40.03,5.9V23.337l.2.022a41.091,41.091,0,0,0,4.615.261l.371,0c3.913,0,7.04-.792,9.043-2.292a8.562,8.562,0,0,0,3.282-7.207A7.584,7.584,0,0,0,54.174,7.4m-1.7,6.842A5.751,5.751,0,0,1,50.955,18.5a6.6,6.6,0,0,1-4.825,1.609,10.827,10.827,0,0,1-1.3-.046V9.083A10.379,10.379,0,0,1,46.6,8.966a6.234,6.234,0,0,1,4.524,1.541,5.064,5.064,0,0,1,1.351,3.74" transform="translate(-34.142 -4.694)" fill="#4ecdc4"/>
    <path id="Path_158" data-name="Path 158" d="M272.346,6.427v5.28c0,2.423.074,4.373.237,6.154a47.937,47.937,0,0,0-2.707-4.965L265.8,6.427H260.37v17.8h4.451V18.787c0-2.584-.046-4.751-.145-6.738a61.474,61.474,0,0,0,3,5.387l4.206,6.788H276.8V6.427Z" transform="translate(-222.069 -5.482)" fill="#4ecdc4"/>
    <path id="Path_159" data-name="Path 159" d="M399.923,9.481v10.2c0,2.858-1.122,4.307-3.334,4.307-2.711,0-3.28-2.342-3.28-4.307V9.481H388.5V19.4c0,5.419,2.672,8.167,7.942,8.167a8.571,8.571,0,0,0,6.081-2,8.045,8.045,0,0,0,2.208-6.118V9.481Z" transform="translate(-331.352 -8.086)" fill="#4ecdc4"/>
    <path id="Path_160" data-name="Path 160" d="M511.483,6.427v3.735H516.7V24.224H521.5V10.162h5.286V6.427Z" transform="translate(-436.243 -5.481)" fill="#4ecdc4"/>
    <rect id="Rectangle_170" data-name="Rectangle 170" width="1.413" height="6.359" transform="translate(34.242 15.143)" fill="#fff"/>
    <path id="Path_161" data-name="Path 161" d="M158.7,12.419A9.419,9.419,0,1,1,149.279,3a9.419,9.419,0,0,1,9.419,9.419Z" transform="translate(-119.286 -2.559)" fill="#fff"/>
    <path id="Path_162" data-name="Path 162" d="M146.719,19.721a9.861,9.861,0,1,1,9.861-9.861,9.872,9.872,0,0,1-9.861,9.861m0-18.838A8.978,8.978,0,1,0,155.7,9.861,8.988,8.988,0,0,0,146.719.883" transform="translate(-116.727)" fill="#fff"/>
    <path id="Path_163" data-name="Path 163" d="M147.7,1.21h.579a9.1,9.1,0,0,1,3.506.762.384.384,0,0,1,.137.259q0,.274-.335.32a9.345,9.345,0,0,0-3.339-.7h-.518a8.982,8.982,0,0,0-8.78,8.918v.2a9,9,0,0,0,3.369,7,11.459,11.459,0,0,0,1.814,1.128,9.967,9.967,0,0,0,1.905.64.376.376,0,0,1,.183.29q-.046.32-.32.32a9.1,9.1,0,0,1-2.5-.9,12.255,12.255,0,0,1-2.058-1.509A9.546,9.546,0,0,1,138.312,11v-.259a9.606,9.606,0,0,1,2.82-6.708,10.231,10.231,0,0,1,3.171-2.1,9.449,9.449,0,0,1,3.4-.717m-1.738,1.906h.229q.168,0,1.723.229h.076l1.768-.229h.259q.93,0,2.043,1.372a5.169,5.169,0,0,0,1.631.945,2.282,2.282,0,0,1,1.052,1.052,10.35,10.35,0,0,1,.366,1.951q.061.183.884,1.83a3.435,3.435,0,0,1,.092.625,4.854,4.854,0,0,1-.778,2.012,4.555,4.555,0,0,0-.381,1.677,3.027,3.027,0,0,1-.625,1.433,2.615,2.615,0,0,0-.32,1.189v4.482a1.3,1.3,0,0,1-.732,1.3,1.4,1.4,0,0,1-.4.076h-.168q-.732,0-1.082-.9c-.01-.193-.026-.29-.046-.29l.031-.137V19.885h-.031a8.447,8.447,0,0,1-2.119.579,7.225,7.225,0,0,1-.838.091v1.265q-.107.838-.839.838-.762,0-.853-.93v-2.21a.867.867,0,0,0-.625-.824,2.86,2.86,0,0,1-2.271-1.311A6.272,6.272,0,0,0,142,16.165a2.123,2.123,0,0,1-.9-1.3,5.866,5.866,0,0,0-.549-2.241,3.7,3.7,0,0,1-.656-1.768,3.033,3.033,0,0,1,.549-1.524.408.408,0,0,1,.244-.077h.015q.244,0,.3.336a3.09,3.09,0,0,0-.488,1.265,5.08,5.08,0,0,0,.793,1.875,5.655,5.655,0,0,1,.351,1.647,1.822,1.822,0,0,0,.412,1.052,7.652,7.652,0,0,0,1.509.808,5.07,5.07,0,0,1,1.235,1.082q.609.671.96.671l.793.122a1.506,1.506,0,0,1,.976,1.372v2.3q0,.244.213.244.2,0,.2-.214V17.248a.9.9,0,0,1,.778-.9h.122q.793,0,.9.976v1.036q0,.4.427.4.274,0,.335-.427v-.61q0-.518.686-.762h.244q.487,0,.716.61a.6.6,0,0,1,.015.183v3.887q0,.656.4.762a.464.464,0,0,0,.137.015h.107q.518,0,.518-.762V17.2a3.6,3.6,0,0,1,.793-2.119,6.113,6.113,0,0,0,.32-1.707,9.4,9.4,0,0,1,.9-1.982,2.75,2.75,0,0,0,.107-.533,4.9,4.9,0,0,0-.762-1.769,8.145,8.145,0,0,1-.457-2.134,1.388,1.388,0,0,0-.595-.808,6.316,6.316,0,0,1-2.087-1.3Q150.63,3.742,150,3.741h-.168q-.137,0-1.738.244h-.137q-.2,0-1.768-.244H146q-.656,0-1.723,1.265a5.919,5.919,0,0,1-1.844,1.082,1.434,1.434,0,0,0-.732,1.22q-.168,1.311-.32,1.311a.384.384,0,0,1-.183.061q-.29-.092-.29-.214v-.03q.168-1.982.518-2.241a2.1,2.1,0,0,1,.762-.717,4.867,4.867,0,0,0,1.83-1.1,2.846,2.846,0,0,1,1.951-1.265m-3.4,7.058c.142,0,.239.107.29.32q0,.366-.93.472-.259-.045-.259-.259v-.076q0-.305.9-.458m1.2-3.323h.076q.274.061.274.274V7.2q-.351.763-.579.762h-.061q-.29-.046-.29-.259V7.628q.32-.777.579-.777m0,5.7q.793.351.793.656,0,.228-.335.289-.793-.335-.793-.594v-.061q0-.229.335-.29m1.555,2.455h.137a.346.346,0,0,1,.213.29v.03q0,.32-.869.472h-.031q-.244,0-.29-.335,0-.3.838-.457m2.729-7.363A3.237,3.237,0,0,1,151,9.579a3.6,3.6,0,0,1,.274,1.341,3.171,3.171,0,0,1-1.875,2.9,3.287,3.287,0,0,1-1.341.289h-.107A3.145,3.145,0,0,1,145.2,12.43a3.245,3.245,0,0,1-.4-1.57,3.212,3.212,0,0,1,1.89-2.927,3.63,3.63,0,0,1,1.357-.289m-2.622,3.171a3.189,3.189,0,0,1,5.2.03v-.061a2.581,2.581,0,0,0-1.387-2.21,3.038,3.038,0,0,0-1.22-.29,2.659,2.659,0,0,0-2.408,1.6,3.556,3.556,0,0,0-.183.93m.183,1.022a2.538,2.538,0,0,0,2.378,1.647h.076a2.559,2.559,0,0,0,2.378-1.616,2.659,2.659,0,0,0-1.311-1.479,2.877,2.877,0,0,0-1.113-.259,2.5,2.5,0,0,0-2.317,1.524Zm1.143-5.93h.213q.7.366.7.64V6.56a.327.327,0,0,1-.335.275q-.793-.32-.793-.64a.346.346,0,0,1,.214-.29M148.6,17.277v2.637a8.654,8.654,0,0,0,2.988-.716v-1.2a.19.19,0,0,0-.031-.107l.031-.061q-.031-.229-.213-.229h-.092a.219.219,0,0,0-.122.214V18.3a1.035,1.035,0,0,1-.869,1.082h-.213q-.671,0-.945-.869V17.277q-.061-.289-.275-.289h-.015q-.244,0-.244.289m1.738-12.272q.213,0,.29.289v.061q0,.305-.839.441h-.137a.358.358,0,0,1-.213-.366q0-.244.9-.427m.457,9.848h.076q.214,0,.29.32-.366.777-.61.778h-.046q-.29-.031-.29-.29v-.046q.335-.762.579-.762m1.845-7.576q.244,0,.32.35,0,.29-.9.473-.29-.061-.29-.29V7.72q0-.274.869-.441m-.473,5.381q.869,0,.869.183c.031,0,.046.046.046.137v.076q0,.214-.29.259h-.137q-.762,0-.762-.229l-.015-.137q0-.183.289-.29m.868-10a8.176,8.176,0,0,1,2.637,2.317,9.553,9.553,0,0,1,2,5.793v.2a9.537,9.537,0,0,1-2.653,6.6.38.38,0,0,1-.168.046h-.076q-.214,0-.29-.3,0-.137.686-.869A9.1,9.1,0,0,0,157.047,11v-.213a9.038,9.038,0,0,0-2.7-6.357,9.2,9.2,0,0,0-1.585-1.235.382.382,0,0,1-.046-.168V2.917q0-.228.32-.259m.625,7.623q.747.366.747.579v.091q0,.2-.29.289a1.991,1.991,0,0,1-.778-.457l-.046-.076v-.137q0-.289.366-.289" transform="translate(-117.966 -1.032)" fill="#714618"/>
    <path id="Path_164" data-name="Path 164" d="M280.674,146.44a10.116,10.116,0,1,1-10.106-9.657,9.889,9.889,0,0,1,10.106,9.657" transform="translate(-222.148 -116.662)" fill="#fff"/>
    <path id="Path_165" data-name="Path 165" d="M268,153.98a10.108,10.108,0,1,1,10.548-10.1A10.342,10.342,0,0,1,268,153.98m0-19.315a9.227,9.227,0,1,0,9.665,9.216A9.459,9.459,0,0,0,268,134.666" transform="translate(-219.582 -114.103)" fill="#fff"/>
    <path id="Path_166" data-name="Path 166" d="M269.668,135.493h.308q5.513,0,9.068,5.822a8.4,8.4,0,0,1,.966,3.975q0,4.381-4.212,7.935a10.18,10.18,0,0,1-6.241,2.337q-3.541,0-7.935-3.9a8.056,8.056,0,0,1-2.281-5.766q0-5.43,5.29-8.956a9.911,9.911,0,0,1,5.038-1.442M260,145.582v.672a3.73,3.73,0,0,1,1.091-.546h.112q.084,0,.182.182v.238a2.924,2.924,0,0,1-1.316.714,7.29,7.29,0,0,0,1.679,4.031,16.91,16.91,0,0,0,5.29,3.541.4.4,0,0,0,.238.07.447.447,0,0,1-.126-.238q0-.91.42-.91.168,0,.308.308,0,.9-.42.9v.056a7.912,7.912,0,0,0,2.155.308h.056q.322,0,1.021-.07l-.658-.532v-.238q0-.1.238-.252,1.021.35,1.022.91a10.794,10.794,0,0,0,5.948-3.849,9.546,9.546,0,0,0,2.169-5.948q0-2.8-3.065-6.129a9.537,9.537,0,0,0-6.311-2.645h-.714q-3.61,0-7.039,3.61A9.762,9.762,0,0,0,260,145.582m1.861-3.54q.168,0,.308.294-.588,1.512-.784,1.511h-.238q-.084,0-.182-.182v-.056q.475-1.567.9-1.567m-.294,4.8q1.385.616,1.386,1.021,0,.1-.252.252h-.056q-1.442-.574-1.442-.966a.372.372,0,0,1,.364-.308m.182-1.974h.238a1.029,1.029,0,0,1,.42.714q-.1.309-.308.308a1.114,1.114,0,0,1-.532-.6v-.238c0-.065.06-.126.182-.182m.238-1.442a1.8,1.8,0,0,1,.714.784v.168a.369.369,0,0,1-.35.252q-.238-.07-.672-.728v-.238q.028-.126.308-.238m.238,5.877q1.021.364,1.021.546v.182c-.084.159-.182.238-.294.238q-1.091-.322-1.091-.532v-.182a.394.394,0,0,1,.364-.252m.364-7.207h.238q.084,0,.182.182v.126q-.126.658-.476.658a.39.39,0,0,1-.308-.42q.224-.532.364-.546m.657-1.862h.182q.238.126.238.308-.392,1.442-.6,1.442h-.238c-.056,0-.117-.061-.182-.182v-.056q.35-1.511.6-1.511m-.182,3.667q1.021,0,1.022.476a.372.372,0,0,1-.364.308q-.9-.14-.9-.364v-.182q0-.084.238-.238m0,1.442a.405.405,0,0,1,.42.238v1.147q0,.1-.238.238h-.238q-.182-.056-.182-.364v-1.022q0-.084.238-.238m.91,4.688h.238q.126.028.238.294,0,.168-.658.728h-.182q-.1,0-.238-.238v-.182q0-.084.6-.6m-.308-1.987h.184q.238,0,.42.966-.084.238-.182.238h-.238q-.364-.182-.364-.966v-.056q0-.084.182-.182m.056,3.485h.252a3.5,3.5,0,0,1,.714.728q0,.42-.364.42-.154,0-.77-.728v-.238c0-.056.056-.117.168-.182m.308-6.368q.2,0,.6.6v.182q-.028.126-.308.238-.154,0-.6-.532V145.4q.028-.112.308-.238m0-2.939h.112a2.677,2.677,0,0,1,.728.966v.238c0,.056-.061.117-.182.182h-.238a2.8,2.8,0,0,1-.658-.91v-.238q0-.1.238-.238m.364,4.506h.238q.126.028.238.294-.336.6-.728.6h-.056q-.1,0-.238-.238,0-.294.546-.657m.35-6.256h.126q1.623.546,1.623.784v.182q0,.084-.182.182h-.126a9.5,9.5,0,0,1-1.553-.546v.07q-.14.714-.364.714-.364-.056-.364-.182V141.5q.084-.714.42-.714h.182q0-.182.238-.308m.126,3.247h.182q.238.126.238.308-.238.77-.42.77h-.238q-.14,0-.182-.294.2-.783.42-.784m.126-5.22h.168q.1,0,.252.238v.056q-.21.966-.672.966-.084,0-.238-.238a1.446,1.446,0,0,1,.49-1.022m.294,11.112a.372.372,0,0,1,.308.364q-.462,1.078-.784,1.077-.308-.126-.308-.364.448-1.077.784-1.077m.056-1.568h.182a4.8,4.8,0,0,1,.966,1.624v.07q0,.084-.238.238h-.182a4.991,4.991,0,0,1-.966-1.624v-.07q0-.084.238-.238m3.9-6.661h.42a4.115,4.115,0,0,1,4.031,2.939l.182.784.294-.056q.784.182.784.532,0,.168-.294.308a3.066,3.066,0,0,1-.784-.308,4.131,4.131,0,0,1-2.463,3.723,4.684,4.684,0,0,1-2.043.434,3.894,3.894,0,0,1-.84-.126h-.056v.056q.238,0,.238.308-.686,1.133-.966,1.134a.389.389,0,0,1-.294-.42q.643-1.05.9-1.077v-.056q-.938,0-2.169-1.442a6.952,6.952,0,0,1-.9-2.883v-.309a3.789,3.789,0,0,1,1.021-2.281v-.056q-1.147-.126-1.147-.546v-.056q.126-.238.308-.238,1.147.14,1.147.532v.056h.056a4.4,4.4,0,0,1,2.574-.951M265.763,152.2q1.693.224,1.693.42v.294q0,.14-.308.182-1.679-.238-1.679-.546v-.112q.126-.238.294-.238m.49-13.043h.238c.056,0,.116.061.182.182v.238a2.083,2.083,0,0,1-.6.657h-.182c-.065,0-.145-.079-.238-.238q0-.35.6-.84m-.182,11.531q1.385.112,1.385.364v.238c0,.056-.061.118-.182.182h-.07q-1.372-.056-1.371-.476.112-.28.238-.308m.84-13.757h.238q.21,0,.546,1.022v.126q0,.168-.238.168a.8.8,0,0,1,.111.364v.07q-.028.112-.294.238-1.385-.238-1.386-.6v-.07q.126-.238.294-.238l.966.182a3.514,3.514,0,0,1-.42-.952v-.126c0-.056.06-.117.182-.182m-.966,8.046v.253a4.63,4.63,0,0,0,1.442,3.233,4.169,4.169,0,0,0,1.861.6h.49a3.567,3.567,0,0,0,3.177-2.155,3.528,3.528,0,0,0,.308-1.511,3.3,3.3,0,0,0-1.092-2.393,3.945,3.945,0,0,0-2.631-1.021,3.631,3.631,0,0,0-3.429,2.281,2.553,2.553,0,0,0-.126.714m2.17-6.368h.238q.1,0,.238.238v.126a10.051,10.051,0,0,1-.9,1.022q.378,0,.476.784-.112.266-.238.294h-.238q-.182,0-.308-.784l.182-.294q-.364,0-.364-.182v-.238a5.7,5.7,0,0,1,.91-.966m.532-1.861q.364.042.364.182v.308q-.364.476-.6.476a.368.368,0,0,1-.294-.364q0-.154.532-.6m-.168,15.2h.238q.1,0,.658.853v.238q0,.112-.126.112a.684.684,0,0,1,.126.364v.056a2.081,2.081,0,0,1-.658.6h-.238q-.1,0-.182-.182v-.238a4.807,4.807,0,0,1,.6-.6,2.629,2.629,0,0,1-.6-.784v-.237c0-.056.061-.116.182-.182m1.26-14.89q.238.084.238.182v.294a5.3,5.3,0,0,1-1.022.714h-.238q-.084,0-.182-.168v-.252q.868-.769,1.2-.77m-.727,1.679q.42,0,.42,1.259l-.238.182h-.112q-.266,0-.434-1.147.126-.294.364-.294m.546,11.713h.238a.4.4,0,0,1,.238.42v.364q0,.546-.42.546-.1,0-.238-.252v-.9q0-.084.182-.182m.182-10.216h.238a4.169,4.169,0,0,1,1.2.784v.182q0,.1-.238.238-1.442-.574-1.442-.9.112-.28.238-.308m.658-1.315q.1,0,.238.238v.238a1.184,1.184,0,0,1-.84.364l-.182-.238v-.182q0-.21.784-.42m1.5,11.531h.308q.14,0,.182.308-.35,1.441-.728,1.442h-.112l.112.168v.252c0,.056-.061.117-.182.182h-.182a3.916,3.916,0,0,0-.714-.126,3.516,3.516,0,0,1,.238.84q0,.1-.238.238H270.4q-.224-.056-.546-1.2.126-.266.252-.294h.168l.252.182q0-.42.294-.42a4.438,4.438,0,0,0,.658.182.658.658,0,0,1-.112-.182v-.07q.349-1.5.532-1.5m-1.679-13.1h.308q.182,0,.42,1.021l-.252.182h-.238a1.819,1.819,0,0,1-.42-.966q.1-.238.182-.238m.91,2.1h.238q.182.07.182.364a1.294,1.294,0,0,1-.49.6h-.182a.4.4,0,0,1-.238-.364,1.4,1.4,0,0,1,.49-.6m.532,10.034h.238q.126.028.238.308-.826,1.078-1.259,1.078-.084,0-.238-.238v-.056q0-.322,1.022-1.091m-.42-12.917h.238q.727.588.728.84-.126.28-.238.308h-.07q-.322,0-.839-.728v-.237c0-.056.06-.117.182-.182m.727,2.043h.168a2.423,2.423,0,0,1,.728.966q-.112.28-.238.294h-.238a3.458,3.458,0,0,1-.672-.951q.126-.28.252-.308m.112,1.861h.784q.084,0,.182.182v.238q0,.252-.91.252a.388.388,0,0,1-.294-.42q0-.1.238-.252m.238,11.657h.252a.4.4,0,0,1,.238.42v.126q0,.462-.238.546h-.252q-.182-.07-.182-.364v-.546q0-.084.182-.182m.728-14.779a.368.368,0,0,1,.294.364q-.112.42-.952.42l-.126-.182v-.238q0-.182.784-.364m-.546,11.713h.238a2.718,2.718,0,0,1,.49,1.329v.056c0,.056-.061.117-.182.182H272.8q-.21,0-.546-1.329,0-.084.238-.238m.42,2.281h.182q.084,0,.6.6v.252q-.028.112-.294.238-.168,0-.728-.657V151.6q0-.1.238-.252m.966-10.51a1.322,1.322,0,0,1,.238.364q-.462.924-.6.966h-.238q-.126-.028-.238-.308.434-1.021.84-1.022m-.126,6.549q.182,0,.364.364-.49,1.078-.658,1.078-.42,0-.42-.364.475-1.077.714-1.078m.126-8.648h.182q.1,0,.238.238v.182q-.42.966-.784.966-.238-.1-.238-.182v-.126q.378-1.077.6-1.077m-.364,10.454q.42,0,1.147,1.2a.388.388,0,0,1-.42.294q-.966-.868-.966-1.2v-.056q0-.1.238-.238m.308,1.568q1.021.406,1.022.588v.182q0,.1-.238.252-1.147-.364-1.147-.6V151a.4.4,0,0,1,.364-.238m.182-8.355h.056q.238.084.238.532v.546q0,.546-.364.546-.266-.126-.294-.252v-1.189q.056-.182.364-.182m.658,3.9q.308,0,.714,1.078v.126q0,.084-.182.182h-.238a2.253,2.253,0,0,1-.6-1.021v-.126q.028-.126.308-.238m.532,2.337h.252q.084,0,.182.182v.126q-.448,1.133-.672,1.134h-.18q-.084,0-.238-.238a2.5,2.5,0,0,1,.658-1.2m-.168-6.661h.294q.182.056.182.35v2.589q0,.084-.182.182h-.238a.4.4,0,0,1-.238-.42v-2.352q.028-.349.182-.35m.168-2.533h.182q.294,0,.49,1.511c0,.056-.061.117-.182.182h-.238q-.266,0-.49-1.511Zm.434,11h.238q.084,0,.182.182v.056q-.266,1.2-.6,1.2a.383.383,0,0,1-.364-.294q.35-1.147.546-1.147m.112-4.87h.238c.056,0,.117.061.182.182V146q-.392.49-.532.49-.28-.126-.308-.238V146q0-.084.42-.42m.42-1.736h.308c.075,0,.112.061.112.182l.308-.07a2.089,2.089,0,0,1,.84.672v.238c0,.056-.061.118-.182.182h-.183l-.784-.546q-.154.784-.364.784h-.168a.394.394,0,0,1-.252-.364q.21-1.078.364-1.077m.238-1.623h.182q1.385.364,1.386.714v.07q-.084.238-.182.238h-.126q-1.5-.322-1.5-.84Zm-.056,6.843h.238q.154,0,.49.91-.126.266-.252.294h-.168q-.252,0-.49-.9v-.126c0-.056.061-.117.182-.182m.126-1.372h.238a6.42,6.42,0,0,1,.9.9v.294q-.056.182-.364.182a7.2,7.2,0,0,1-.952-.952v-.252q0-.084.182-.168m.112-1.442h.18q1.26.616,1.259.84,0,.35-.476.35a4.305,4.305,0,0,1-1.2-.77v-.182q0-.1.238-.238m.238-5.78h.253q.154,0,.35,1.386-.084.364-.35.364-.49-.168-.49-1.567Zm1.2,4.87q.616.322.658.476,0,.434-.35.434-.728-.322-.728-.6a.391.391,0,0,1,.42-.308m.658-1.987h.252q.126,0,.182.308-.182.966-.434.966h-.167q-.154,0-.182-.252.1-1.021.35-1.022" transform="translate(-221.191 -115.561)" fill="#714618"/>
  </g>
</svg>
