<?xml version="1.0" standalone="no"?>
<!DOCTYPE svg PUBLIC "-//W3C//DTD SVG 20010904//EN"
 "http://www.w3.org/TR/2001/REC-SVG-20010904/DTD/svg10.dtd">
<svg version="1.0" xmlns="http://www.w3.org/2000/svg"
 width="298.000000pt" height="298.000000pt" viewBox="0 0 298.000000 298.000000"
 preserveAspectRatio="xMidYMid meet">
<metadata>
Created by potrace 1.14, written by Peter Selinger 2001-2017
</metadata>
<g transform="translate(0.000000,298.000000) scale(0.100000,-0.100000)"
fill="#000000" stroke="none">
<path d="M1295 2631 c-28 -9 -60 -23 -72 -32 -26 -18 -185 -169 -178 -169 7 0
89 53 95 62 8 10 69 54 105 75 31 18 179 28 169 11 -3 -4 3 -8 12 -8 25 0 144
-60 144 -72 0 -6 -9 -26 -21 -45 -17 -27 -19 -36 -9 -48 20 -24 36 -18 64 25
l26 40 57 -34 c32 -19 62 -42 68 -53 10 -19 27 -34 32 -29 2 1 -4 17 -13 34
-16 32 -16 65 -1 66 5 1 20 -21 35 -47 25 -45 26 -49 10 -61 -25 -18 -22 -26
7 -26 29 0 33 -24 10 -57 -11 -16 -12 -24 -4 -29 8 -5 9 -3 4 6 -5 8 -4 11 3
6 18 -11 -2 -50 -29 -57 l-24 -7 25 -1 c19 -1 21 -4 11 -10 -8 -5 -21 -7 -29
-3 -11 4 -13 2 -7 -8 6 -10 4 -12 -8 -7 -16 6 -16 5 -1 -18 8 -13 21 -22 29
-19 7 3 16 1 20 -5 3 -6 0 -9 -7 -6 -11 4 -13 -8 -11 -52 1 -48 -2 -62 -20
-81 -23 -25 -68 -52 -87 -52 -21 0 -9 37 18 51 l27 13 -35 3 c-19 2 -66 10
-105 18 -38 8 -88 17 -109 19 -43 5 -51 11 -60 41 -3 11 -3 -4 0 -32 4 -44 2
-53 -12 -53 -9 0 -18 9 -21 21 -5 17 -11 20 -36 15 -16 -3 -33 -6 -38 -6 -5 0
-25 -25 -44 -55 -20 -30 -42 -55 -50 -55 -17 0 -19 23 -5 51 16 29 -1 23 -79
-28 -74 -49 -89 -74 -75 -128 6 -23 4 -26 -12 -23 -10 2 -21 14 -24 27 -5 23
-7 22 -32 -16 -34 -51 -60 -112 -52 -124 3 -5 18 -9 35 -9 22 0 29 -5 29 -20
0 -17 -7 -20 -44 -20 l-44 0 -6 -62 c-4 -35 -6 -109 -5 -164 3 -109 -9 -146
-51 -159 -15 -5 -20 -14 -18 -28 3 -19 10 -22 56 -25 46 -3 68 -14 44 -24 -5
-1 -12 -29 -16 -60 -6 -54 -5 -58 14 -58 11 0 20 -6 20 -14 0 -7 7 -19 15 -26
11 -9 15 -10 15 -1 0 21 45 8 48 -14 2 -11 16 -29 33 -41 l29 -21 -21 -26
c-20 -26 -20 -27 -1 -27 10 0 21 3 25 6 3 4 32 8 64 10 75 6 83 9 83 36 0 19
2 20 11 8 9 -12 10 -11 6 8 -4 19 -1 22 23 22 16 0 31 -6 33 -12 3 -7 3 1 0
18 -8 48 22 64 124 64 45 0 85 4 88 10 3 5 23 9 43 9 39 -2 96 18 140 49 15
11 52 22 84 26 37 5 58 13 62 23 8 20 -2 32 -13 15 -8 -13 -63 -32 -93 -32
-32 0 -18 25 25 45 36 17 48 31 81 97 36 70 38 80 27 105 -11 25 -10 29 8 42
12 7 21 24 21 36 0 27 36 75 57 75 11 0 13 5 7 18 -16 36 -16 118 0 131 8 7
20 10 26 6 14 -9 13 -108 -2 -123 -9 -9 -9 -15 -1 -23 16 -16 29 13 37 82 4
31 14 65 21 75 8 11 15 26 15 35 0 9 11 28 24 42 29 31 41 63 27 71 -5 3 -22
-14 -38 -39 -15 -25 -34 -47 -42 -50 -25 -10 -32 10 -16 48 19 46 19 57 0 57
-25 0 -17 27 9 32 17 4 23 1 19 -9 -3 -7 2 -13 12 -13 9 0 14 4 11 9 -3 5 3
11 14 14 13 3 18 1 14 -6 -5 -8 -2 -7 7 1 7 6 21 12 31 12 11 0 18 7 18 20 0
13 7 20 20 20 13 0 20 -7 20 -20 0 -16 7 -20 38 -21 20 -1 29 -3 20 -6 -26 -7
-25 -102 1 -134 26 -32 44 -15 43 40 l-1 41 25 -29 c25 -30 63 -107 64 -129 0
-9 -4 -10 -19 -1 -24 16 -53 4 -49 -18 2 -10 20 -27 41 -38 38 -20 38 -20 35
-78 -2 -33 1 -57 7 -57 6 0 16 -4 24 -9 22 -14 -4 -41 -39 -41 -33 0 -60 -9
-60 -20 0 -5 9 -6 20 -3 26 7 25 -3 -4 -80 -15 -41 -21 -69 -15 -78 14 -23 10
-35 -16 -47 -14 -6 -25 -19 -25 -27 0 -9 -10 -39 -22 -67 -16 -37 -19 -53 -10
-56 16 -5 16 -104 0 -120 -20 -20 -28 -14 -29 21 l0 32 -20 -43 c-10 -24 -17
-48 -14 -52 3 -4 -2 -11 -10 -14 -8 -3 -14 -9 -14 -13 1 -4 -1 -16 -5 -26 -9
-20 -36 -23 -36 -4 0 6 -5 4 -11 -6 -6 -10 -8 -34 -5 -53 6 -31 5 -34 -16 -34
-13 0 -43 -9 -67 -20 -24 -11 -52 -20 -62 -20 -11 0 -25 -13 -35 -32 -26 -51
-35 -60 -49 -48 -7 6 -11 19 -8 29 4 17 0 17 -52 8 -41 -8 -62 -8 -75 1 -16
10 -23 6 -50 -28 -36 -45 -53 -51 -48 -17 3 21 0 22 -54 19 -50 -3 -58 -1 -58
13 0 13 -3 15 -12 7 -7 -6 -42 -18 -78 -27 -36 -9 -96 -28 -135 -41 -38 -14
-100 -28 -137 -31 l-66 -6 -15 49 -15 49 5 -57 c5 -53 4 -58 -14 -58 -13 0
-23 12 -32 36 -9 26 -18 35 -30 31 -17 -4 -87 58 -74 66 5 3 22 8 40 11 42 9
60 31 43 51 -15 18 -47 19 -86 5 -23 -9 -31 -8 -48 11 -15 15 -17 23 -8 26 6
3 12 9 12 14 0 5 -9 4 -21 -3 -17 -11 -22 -10 -30 5 -6 9 -17 17 -24 17 -8 0
-15 4 -15 9 0 8 -56 21 -155 36 -52 9 -115 42 -115 61 0 8 -4 13 -9 10 -5 -3
-11 9 -15 27 -5 24 -9 28 -16 18 -30 -49 187 -298 365 -418 169 -114 374 -173
601 -173 141 0 174 4 341 43 7 2 16 6 19 10 4 4 15 7 25 7 9 0 30 6 46 14 15
7 46 22 68 32 210 99 406 289 507 492 24 48 47 90 51 93 5 3 8 8 7 10 -1 2 3
17 9 32 6 16 11 33 11 38 0 6 6 31 14 57 59 195 44 499 -34 700 -52 135 -112
231 -215 345 -27 30 -69 78 -93 106 -44 52 -77 72 -290 177 -85 42 -123 53
-362 109 -86 20 -221 18 -285 -4z m713 -320 c11 -6 7 -20 -14 -64 -22 -45 -33
-57 -51 -57 -28 0 -29 10 -3 60 11 22 17 40 13 40 -7 0 29 29 37 30 3 0 11 -4
18 -9z m202 -86 c22 -13 -4 -25 -54 -25 -58 0 -68 4 -59 27 5 12 17 14 55 10
27 -4 53 -9 58 -12z m-310 -81 c0 -21 -27 -17 -33 5 -3 14 0 17 14 14 11 -3
19 -12 19 -19z m218 -86 c2 -41 -1 -58 -14 -68 -14 -12 -17 -11 -27 5 -13 24
-10 95 5 113 20 24 33 6 36 -50z m159 -30 c52 -51 37 -76 -26 -44 -36 19 -55
42 -47 61 9 24 37 18 73 -17z m-304 -25 c-7 -78 -12 -93 -32 -93 -13 0 -18 8
-18 33 0 18 -3 46 -7 62 -5 22 -4 26 4 15 8 -13 10 -13 10 2 0 9 10 19 23 21
12 2 23 5 23 6 1 0 0 -20 -3 -46z m-353 -224 c151 -67 216 -249 145 -407 -35
-78 -104 -143 -178 -169 -74 -25 -179 -23 -237 5 -92 44 -167 145 -178 237 -5
52 6 137 18 130 4 -3 6 3 3 13 -6 25 81 152 105 152 5 0 17 9 27 20 10 11 20
18 22 16 2 -2 25 5 51 15 58 24 153 18 222 -12z m447 -71 c-3 -8 -6 -5 -6 6
-1 11 2 17 5 13 3 -3 4 -12 1 -19z m-1044 -275 c53 -27 29 -43 -34 -22 -42 14
-53 24 -44 39 7 12 32 6 78 -17z m97 -230 c0 -16 -36 -73 -55 -85 -36 -26 -33
18 5 71 30 40 50 46 50 14z m320 -133 c0 -12 -33 -26 -85 -36 -33 -6 -37 -4
-33 12 2 11 15 21 33 25 48 10 85 10 85 -1z m-250 -131 c0 -6 -4 -7 -10 -4 -5
3 -10 11 -10 16 0 6 5 7 10 4 6 -3 10 -11 10 -16z"/>
<path d="M1217 2503 c-4 -3 -7 -30 -7 -58 0 -52 18 -84 38 -71 8 5 9 84 3 129
-1 9 -25 9 -34 0z"/>
<path d="M990 2415 c-14 -8 -20 -14 -15 -14 6 0 21 6 35 14 14 8 21 14 15 14
-5 0 -21 -6 -35 -14z"/>
<path d="M1383 2350 c-18 -27 -27 -47 -20 -44 15 6 59 73 55 84 -2 5 -18 -13
-35 -40z"/>
<path d="M1197 2313 c-4 -3 -7 -11 -7 -17 0 -6 5 -5 12 2 6 6 9 14 7 17 -3 3
-9 2 -12 -2z"/>
<path d="M1740 2307 c0 -10 8 -17 18 -17 9 0 13 4 7 8 -5 4 -13 11 -17 16 -5
5 -8 2 -8 -7z"/>
<path d="M1780 2282 c0 -12 19 -26 26 -19 2 2 -2 10 -11 17 -9 8 -15 8 -15 2z"/>
<path d="M1602 2245 c-11 -12 -10 -15 3 -15 8 0 15 7 15 15 0 18 -2 18 -18 0z"/>
<path d="M1715 2190 c4 -6 11 -8 16 -5 14 9 11 15 -7 15 -8 0 -12 -5 -9 -10z"/>
<path d="M1564 2133 c-26 -17 50 -121 79 -110 9 3 17 11 17 17 0 20 -84 100
-96 93z"/>
<path d="M1180 2020 c-9 -6 -10 -10 -3 -10 6 0 15 5 18 10 8 12 4 12 -15 0z"/>
<path d="M903 1988 c-42 -9 -57 -30 -29 -41 24 -9 97 5 103 20 5 13 -13 34
-27 32 -3 -1 -24 -5 -47 -11z"/>
<path d="M516 1837 c-28 -24 -37 -39 -33 -50 10 -25 28 -20 76 22 70 62 28 88
-43 28z"/>
<path d="M634 1676 c-8 -21 0 -30 52 -61 34 -20 49 -24 57 -16 13 13 -8 36
-66 70 -32 19 -38 20 -43 7z"/>
<path d="M2180 1595 c0 -7 69 -35 86 -35 8 0 14 7 14 16 0 13 -3 14 -14 5 -11
-10 -21 -9 -45 3 -31 17 -41 19 -41 11z"/>
<path d="M2161 1455 c-34 -39 -39 -62 -15 -72 10 -4 29 8 54 32 32 31 37 42
29 57 -14 27 -33 22 -68 -17z"/>
<path d="M624 1441 c-17 -16 -38 -31 -45 -33 -8 -3 -11 -9 -6 -13 8 -10 88 43
95 63 6 20 -11 13 -44 -17z"/>
<path d="M837 1446 c-4 -10 -5 -21 -2 -24 9 -9 17 6 13 25 -3 17 -4 17 -11 -1z"/>
<path d="M420 1375 c0 -8 4 -15 10 -15 5 0 7 7 4 15 -4 8 -8 15 -10 15 -2 0
-4 -7 -4 -15z"/>
<path d="M473 1373 c-23 -9 -13 -39 25 -76 38 -37 65 -46 78 -26 8 14 -87 108
-103 102z"/>
<path d="M1985 1310 c-3 -5 -1 -10 4 -10 6 0 11 5 11 10 0 6 -2 10 -4 10 -3 0
-8 -4 -11 -10z"/>
<path d="M836 1294 c-5 -14 -4 -15 9 -4 17 14 19 20 6 20 -5 0 -12 -7 -15 -16z"/>
<path d="M748 1293 c6 -2 18 -2 25 0 6 3 1 5 -13 5 -14 0 -19 -2 -12 -5z"/>
<path d="M445 1241 c3 -18 6 -45 6 -60 1 -14 5 -4 10 24 4 27 6 51 3 54 -2 2
-4 -4 -5 -15 -1 -15 -3 -14 -10 6 -7 21 -8 20 -4 -9z"/>
<path d="M655 1173 c-10 -16 -27 -36 -39 -45 l-21 -18 21 0 c19 0 74 62 74 83
0 16 -19 5 -35 -20z"/>
<path d="M2105 1160 c-3 -5 -1 -10 4 -10 6 0 11 5 11 10 0 6 -2 10 -4 10 -3 0
-8 -4 -11 -10z"/>
<path d="M2135 1074 c-35 -43 -37 -47 -21 -62 16 -16 20 -14 52 23 37 44 41
57 20 74 -11 9 -21 2 -51 -35z"/>
<path d="M464 1075 c4 -22 12 -57 18 -78 10 -32 13 -36 21 -21 7 12 7 19 -1
22 -6 2 -8 10 -5 18 3 8 0 14 -7 14 -8 0 -11 10 -7 27 3 16 -1 32 -11 42 -14
14 -14 12 -8 -24z"/>
<path d="M860 1078 c-11 -18 -20 -43 -20 -55 0 -17 -6 -23 -22 -23 -19 0 -20
-2 -8 -10 22 -14 50 -12 50 4 0 8 5 27 11 43 7 19 13 23 18 15 5 -8 8 1 9 23
2 44 -12 45 -38 3z"/>
<path d="M655 1028 c-3 -7 -6 -38 -8 -68 -2 -46 1 -55 17 -58 23 -5 32 10 41
65 4 29 2 49 -6 59 -14 17 -38 18 -44 2z"/>
<path d="M1390 873 c-24 -23 -42 -45 -38 -48 15 -16 92 53 86 77 -2 9 -19 -1
-48 -29z"/>
<path d="M916 897 c3 -10 9 -15 12 -12 3 3 0 11 -7 18 -10 9 -11 8 -5 -6z"/>
<path d="M1010 889 c0 -15 18 -19 23 -6 3 8 -1 14 -9 14 -8 0 -14 -4 -14 -8z"/>
<path d="M1779 890 c-24 -15 -1 -35 55 -48 59 -14 79 -10 70 13 -9 23 -101 49
-125 35z"/>
<path d="M940 805 c-7 -9 -11 -18 -8 -20 9 -10 38 7 38 21 0 18 -14 18 -30 -1z"/>
<path d="M1262 720 c-1 -26 -7 -51 -14 -58 -6 -6 -9 -15 -5 -19 16 -16 28 18
24 68 -3 53 -3 53 -5 9z"/>
<path d="M1645 740 c-3 -5 -2 -10 4 -10 5 0 13 5 16 10 3 6 2 10 -4 10 -5 0
-13 -4 -16 -10z"/>
<path d="M1450 664 c0 -7 52 -25 57 -20 2 2 -10 8 -26 14 -17 6 -31 9 -31 6z"/>
</g>
</svg>
