<svg xmlns="http://www.w3.org/2000/svg" width="29" height="29" viewBox="0 0 29 29">
  <path id="Twiter-icon" d="M14.5,0A14.5,14.5,0,1,0,29,14.5,14.5,14.5,0,0,0,14.5,0Zm6.621,11.306q.01.214.01.43A9.4,9.4,0,0,1,11.662,21.2h0a9.421,9.421,0,0,1-5.1-1.5,6.769,6.769,0,0,0,.794.046,6.678,6.678,0,0,0,4.134-1.425,3.332,3.332,0,0,1-3.112-2.3,3.317,3.317,0,0,0,1.5-.057A3.329,3.329,0,0,1,7.211,12.7q0-.023,0-.042a3.305,3.305,0,0,0,1.507.416,3.331,3.331,0,0,1-1.03-4.443,9.449,9.449,0,0,0,6.86,3.477A3.33,3.33,0,0,1,20.22,9.073a6.675,6.675,0,0,0,2.113-.808,3.341,3.341,0,0,1-1.464,1.841,6.638,6.638,0,0,0,1.911-.524,6.764,6.764,0,0,1-1.659,1.724Zm0,0" fill="#8dc4c3"/>
</svg>
